# AST/ASF file generated using VICON BodyLanguage
# -----------------------------------------------
:version 1.10
:name VICON
:units
  mass 1.0
  length 0.45
  angle deg
:documentation
   .ast/.asf automatically generated from VICON data using
   VICON BodyBuilder and BodyLanguage model FoxedUp or BRILLIANT.MOD
:root
   order TX TY TZ RX RY RZ
   axis XYZ
   position 0 0 0  
   orientation 0 0 0 
:bonedata
  begin
     id 1 
     name lhipjoint
     direction 0.627457 -0.725269 0.283342 
     length 2.53237 
     axis 0 0 0  XYZ
  end
  begin
     id 2 
     name lfemur
     direction 0.34202 -0.939693 0  
     length 7.32496  
     axis 0 0 20  XYZ
    dof rx ry rz
    limits (-160.0 20.0)
           (-70.0 70.0)
           (-60.0 70.0)
  end
  begin
     id 3 
     name ltibia
     direction 0.34202 -0.939693 0   
     length 7.69674   
     axis 0 0 20   XYZ
    dof rx
    limits (-10.0 170.0)
  end
  begin
     id 4 
     name lfoot
     direction 0.127289 -0.349722 0.928166   
     length 1.8612   
     axis -90 7.62852e-016 20   XYZ
    dof rx rz
    limits (-45.0 90.0)
           (-70.0 20.0)
  end
  begin
     id 5 
     name ltoes
     direction 1.53561e-011 -4.21864e-011 1   
     length 0.925608   
     axis -90 7.62852e-016 20   XYZ
    dof rx
    limits (-90.0 20.0)
  end
  begin
     id 6 
     name rhipjoint
     direction -0.609094 -0.738725 0.288599   
     length 2.48624  
     axis 0 0 0  XYZ 
  end
  begin
     id 7 
     name rfemur
     direction -0.34202 -0.939693 0   
     length 7.44259   
     axis 0 0 -20   XYZ
    dof rx ry rz
    limits (-160.0 20.0)
           (-70.0 70.0)
           (-70.0 60.0)
  end
  begin
     id 8 
     name rtibia
     direction -0.34202 -0.939693 0   
     length 7.7781   
     axis 0 0 -20   XYZ
    dof rx
    limits (-10.0 170.0)
 end
 begin
     id 9 
     name rfoot
     direction -0.107015 -0.294021 0.949789   
     length 2.14741  
     axis -90 -7.62852e-016 -20   XYZ
    dof rx rz
    limits (-45.0 90.0)
           (-20.0 70.0)
  end
  begin
     id 10 
     name rtoes
     direction -1.53497e-011 -4.21924e-011 1   
     length 1.0706   
     axis -90 -7.62852e-016 -20   XYZ
    dof rx
    limits (-90.0 20.0)
  end
  begin
     id 11 
     name lowerback
     direction -0.0142066 0.998112 -0.0597545   
     length 1.86627   
     axis 0 0 0   XYZ
    dof rx ry rz
    limits (-20.0 45.0)
           (-30.0 30.0)
           (-30.0 30.0)
  end
  begin
     id 12 
     name upperback
     direction 0.00547294 0.999744 0.0219437   
     length 1.86272   
     axis 0 0 0   XYZ
    dof rx ry rz
    limits (-20.0 45.0)
           (-30.0 30.0)
           (-30.0 30.0)
  end
  begin
     id 13 
     name thorax
     direction 0.0116162 0.998704 0.0495538   
     length 1.8703   
     axis 0 0 0   XYZ
    dof rx ry rz
    limits (-20.0 45.0)
           (-30.0 30.0)
           (-30.0 30.0)
  end
  begin
     id 14 
     name lowerneck
     direction -0.0106574 0.998739 0.0490586   
     length 1.8074   
     axis 0 0 0   XYZ
    dof rx ry rz
    limits (-20.0 45.0)
           (-30.0 30.0)
           (-30.0 30.0)
  end
  begin
     id 15 
     name upperneck
     direction 0.030527 0.976587 -0.212944   
     length 1.80681   
     axis 0 0 0   XYZ
    dof rx ry rz
    limits (-20.0 45.0)
           (-30.0 30.0)
           (-30.0 30.0)
  end
  begin
     id 16
     name head
     direction 0.00869225 0.997035 -0.0764531  
     length 1.8313  
     axis 0 0 0   XYZ
    dof rx ry rz
    limits (-20.0 45.0)
           (-30.0 30.0)
           (-30.0 30.0)
  end
  begin
     id 17 
     name lclavicle
     direction 0.915958 0.399447 0.0382386  
     length 3.78965  
     axis 0 0 0   XYZ
    dof ry rz
    limits (-20.0 10.0)
           (0.0 20.0)
  end
  begin
     id 18 
     name lhumerus
     direction 1 -4.48967e-011 3.19303e-027   
     length 4.78095   
     axis -180 -30 -90   XYZ
    dof rx ry rz
    limits (-60.0 90.0)
           (-90.0 90.0)
           (-90.0 90.0)
  end
  begin
     id 19
     name lradius
     direction 1 -4.48967e-011 -3.77974e-027   
     length 3.58615   
     axis -180 -30 -90   XYZ
    dof rx
    limits (-10.0 170.0)
  end
  begin
     id 20
     name lwrist
     direction 1 -4.48927e-011 1.2807e-027   
     length 1.79307   
     axis 1.91374e-015 90 90   XYZ
    dof ry
    limits (-180.0 0.0)
 end
  begin
     id 21 
     name lhand
     direction 1 -4.49036e-011 2.5614e-027   
     length 0.659812   
     axis -1.63439e-015 90 90   XYZ
    dof rx rz
    limits (-90.0 90.0)
           (-45.0 45.0)
  end
  begin
     id 22 
     name lfingers
     direction 1 -4.49052e-011 5.1228e-027   
     length 0.531957   
     axis -3.26879e-015 90 90   XYZ
    dof rx
    limits (0.0 90.0)
  end
  begin
     id 23
     name lthumb
     direction 0.707107 -6.35012e-011 0.707107   
     length 0.763787   
     axis -90 45 2.85299e-015   XYZ
    dof rx rz
    limits (-45.0 45.0)
           (-45.0 45.0)
  end
  begin
     id 24 
     name rclavicle
     direction -0.895351 0.435135 0.0948887   
     length 3.70497  
     axis 0 0 0   XYZ 
    dof ry rz
    limits (-10.0 20.0)
           (-20.0 0.0)
  end
  begin
     id 25 
     name rhumerus
     direction -1 -4.48971e-011 2.38946e-027  
     length 4.48913   
     axis -180 30 90   XYZ
    dof rx ry rz
    limits (-90.0 60.0)
           (-90.0 90.0)
           (-90.0 90.0)
  end
  begin
     id 26 
     name rradius
     direction -1 -4.4895e-011 4.38668e-027   
     length 3.7051   
     axis -180 30 90   XYZ
    dof rx
    limits (-10.0 170.0)
  end
  begin
     id 27 
     name rwrist
     direction -1 -4.49007e-011 1.2807e-027   
     length 1.85255   
     axis 1.91374e-015 -90 -90   XYZ
    dof ry
    limits (-180.0 0.0)
  end
  begin
     id 28
     name rhand
     direction -1 -4.48851e-011 2.5614e-027   
     length 0.449136   
     axis -1.63439e-015 -90 -90   XYZ
    dof rx rz
    limits (-90.0 90.0)
           (-45.0 45.0)
  end
  begin
     id 29
     name rfingers
     direction -1 -4.49128e-011 5.1228e-027   
     length 0.362105   
     axis -3.26879e-015 -90 -90   XYZ
    dof rx
    limits (0.0 90.0)
  end
  begin
     id 30
     name rthumb
     direction -0.707107 -6.34851e-011 0.707107   
     length 0.519912   
     axis -90 -45 -2.85299e-015   XYZ
    dof rx rz
    limits (-45.0 45.0)
           (-45.0 45.0)
  end
:hierarchy
  begin
    root lhipjoint rhipjoint lowerback
    lhipjoint lfemur
    lfemur ltibia
    ltibia lfoot
    lfoot ltoes
    rhipjoint rfemur
    rfemur rtibia
    rtibia rfoot
    rfoot rtoes
    lowerback upperback
    upperback thorax
    thorax lowerneck lclavicle rclavicle
    lowerneck upperneck
    upperneck head
    lclavicle lhumerus
    lhumerus lradius
    lradius lwrist
    lwrist lhand lthumb
    lhand lfingers
    rclavicle rhumerus
    rhumerus rradius
    rradius rwrist
    rwrist rhand rthumb
    rhand rfingers
  end

#!OML:ASF I:\Actors\actors\Patient Classification 2\Patient 1\Session 1\actor1.ASF
:FULLY-SPECIFIED
:DEGREES
61
root -0.666672 18.6897 5.57206 0.0170517 -2.22547 -2.78618
lowerback 4.89553 0.724062 0.296516
upperback -2.59366 1.02721 0.745914
thorax -5.44447 0.512176 0.509401
lowerneck -11.7853 -1.54724 -0.224841
upperneck 19.1702 -2.71604 2.97789
head 7.91072 -1.02236 0.742524
rclavicle -1.77167e-014 3.18055e-015
rhumerus -48.7658 -0.24628 -86.7876
rradius 40.4953
rwrist 15.8685
rhand -10.7352 -29.3346
rfingers 7.12502
rthumb 15.2755 -58.7505
lclavicle -1.77167e-014 3.18055e-015
lhumerus -42.5428 1.13531 89.1962
lradius 35.9311
lwrist -12.0533
lhand -4.26125 -26.0514
lfingers 7.12502
lthumb 21.5031 2.77499
rfemur 0 0 0
rtibia 0
rfoot 0 0
rtoes 0
lfemur -3.65789 -5.92455 -11.4736
ltibia 21.6399
lfoot -22.1942 13.4007
ltoes -55.16
62
root -0.668974 18.6901 5.57523 0.00998131 -2.22623 -2.79176
lowerback 4.88211 0.731571 0.291274
upperback -2.57416 1.03757 0.765539
thorax -5.41693 0.5179 0.531995
lowerneck -11.6929 -1.59621 -0.221231
upperneck 18.9215 -2.75656 2.88738
head 7.81084 -1.0543 0.708462
rclavicle -1.0225e-014 -5.76476e-015
rhumerus -48.9007 -0.88013 -86.4406
rradius 40.6187
rwrist 16.4469
rhand -10.4874 -29.2584
rfingers 7.12502
rthumb 15.5143 -58.656
lclavicle -1.0225e-014 -5.76476e-015
lhumerus -42.5353 1.08995 89.2352
lradius 35.9445
lwrist -12.0099
lhand -4.22989 -26.0438
lfingers 7.12502
lthumb 21.5332 2.77922
rfemur 0 0 0
rtibia 0
rfoot 0 0
rtoes 0
lfemur -3.63394 -5.9021 -11.4578
ltibia 21.6338
lfoot -22.2151 13.3599
ltoes -55.1517
63
root -0.671168 18.69 5.57825 -0.00677319 -2.2429 -2.76374
lowerback 4.87778 0.754154 0.27584
upperback -2.56364 1.06556 0.746643
thorax -5.40357 0.531944 0.518512
lowerneck -11.5783 -1.71517 -0.344665
upperneck 18.6749 -2.90339 2.96703
head 7.71428 -1.12983 0.741128
rclavicle 6.27414e-015 -9.34288e-015
rhumerus -49.066 -1.52919 -86.1477
rradius 40.7312
rwrist 17.0377
rhand -10.4453 -29.1855
rfingers 7.12502
rthumb 15.5548 -58.5799
lclavicle 6.27414e-015 -9.34288e-015
lhumerus -42.5298 1.08888 89.1999
lradius 35.9088
lwrist -12.0657
lhand -4.25665 -26.0778
lfingers 7.12502
lthumb 21.5075 2.74814
rfemur 0 0 0
rtibia 0
rfoot 0 0
rtoes 0
lfemur -3.59538 -5.90162 -11.4861
ltibia 21.6246
lfoot -22.2467 13.3735
ltoes -55.1398
64
root -0.673175 18.6889 5.58086 -0.0145032 -2.24737 -2.76523
lowerback 4.88165 0.773972 0.306993
upperback -2.54297 1.09324 0.729347
thorax -5.3834 0.544189 0.480555
lowerneck -11.4765 -1.8231 -0.491377
upperneck 18.3815 -3.03301 3.06822
head 7.60558 -1.19727 0.786536
rclavicle 8.00108e-015 9.14409e-015
rhumerus -48.9473 -0.994698 -86.4857
rradius 40.6653
rwrist 16.3857
rhand -10.7173 -29.3015
rfingers 7.12502
rthumb 15.2928 -58.7161
lclavicle 8.00108e-015 9.14409e-015
lhumerus -42.5214 1.05904 89.1661
lradius 35.9085
lwrist -12.0817
lhand -4.25923 -26.1503
lfingers 7.12502
lthumb 21.505 2.6759
rfemur 0 0 0
rtibia 0
rfoot 0 0
rtoes 0
lfemur -3.56804 -5.94613 -11.4855
ltibia 21.6115
lfoot -22.2541 13.4101
ltoes -55.1327
65
root -0.674275 18.688 5.58377 -0.00308023 -2.21923 -2.77276
lowerback 4.87757 0.759878 0.340597
upperback -2.51365 1.07695 0.73873
thorax -5.34981 0.535133 0.473226
lowerneck -11.3614 -1.87664 -0.491304
upperneck 17.9657 -3.06956 2.95576
head 7.44738 -1.23173 0.74733
rclavicle -6.85807e-015 -4.37326e-015
rhumerus -48.8616 -0.353062 -86.8368
rradius 40.6873
rwrist 15.6764
rhand -10.9746 -29.3096
rfingers 7.12502
rthumb 15.0449 -58.743
lclavicle -6.85807e-015 -4.37326e-015
lhumerus -42.4902 1.12929 89.1331
lradius 35.9348
lwrist -12.1204
lhand -4.16173 -26.2377
lfingers 7.12502
lthumb 21.5986 2.57776
rfemur 0 0 0
rtibia 0
rfoot 0 0
rtoes 0
lfemur -3.57614 -6.00987 -11.4789
ltibia 21.6101
lfoot -22.2497 13.4219
ltoes -55.1397
